<svg width="182" height="61" viewBox="0 0 182 61" fill="none" xmlns="http://www.w3.org/2000/svg">
<path d="M181.707 54.2071C182.098 53.8166 182.098 53.1834 181.707 52.7929L175.343 46.4289C174.953 46.0384 174.319 46.0384 173.929 46.4289C173.538 46.8195 173.538 47.4526 173.929 47.8431L179.586 53.5L173.929 59.1569C173.538 59.5474 173.538 60.1805 173.929 60.5711C174.319 60.9616 174.953 60.9616 175.343 60.5711L181.707 54.2071ZM0.666667 5.49991C0.666667 8.44543 3.05448 10.8332 6 10.8332C8.94552 10.8332 11.3333 8.44543 11.3333 5.49991C11.3333 2.5544 8.94552 0.166581 6 0.166581C3.05448 0.166581 0.666667 2.5544 0.666667 5.49991ZM129 47.4999L128.623 48.426C135.52 51.236 145.147 52.7447 154.728 53.5588C164.333 54.375 173.991 54.5 181 54.5V53.5V52.5C174.009 52.5 164.417 52.3749 154.897 51.566C145.353 50.7551 135.98 49.2638 129.377 46.5738L129 47.4999ZM6 5.49991V6.49991C9.64844 6.49991 14.3869 6.21661 19.7083 6.02267C25.0554 5.82779 31.0522 5.71953 37.3206 6.06087C49.8696 6.74422 63.4282 9.22635 74.9749 16.3509L75.5 15.4999L76.0251 14.6489C64.0718 7.27332 50.1304 4.75545 37.4294 4.06383C31.0728 3.71769 25.0071 3.82822 19.6355 4.02399C14.2381 4.2207 9.60156 4.49991 6 4.49991V5.49991ZM75.5 15.4999L74.9749 16.3509C86.7326 23.6058 96.6792 30.1974 105.468 35.7216C114.22 41.2232 121.785 45.6402 128.623 48.426L129 47.4999L129.377 46.5738C122.715 43.8598 115.28 39.5268 106.532 34.0284C97.8208 28.5527 87.7674 21.8942 76.0251 14.6489L75.5 15.4999Z" fill="#63955E"/>
</svg>
