<svg width="100" height="101" viewBox="0 0 100 101" fill="none" xmlns="http://www.w3.org/2000/svg">
<path d="M17.7495 77.3753H82.2495M76.8745 98.8753C78.3001 98.8753 79.6672 98.309 80.6753 97.301C81.6833 96.293 82.2495 94.9259 82.2495 93.5003V64.7441C82.2495 62.2877 83.948 60.2076 86.1572 59.1487C90.7312 56.9667 94.3874 53.2392 96.4805 48.6238C98.5737 44.0085 98.9693 38.8022 97.5974 33.9236C96.2256 29.045 93.1745 24.8078 88.9827 21.9599C84.7909 19.1119 79.7278 17.8361 74.6869 18.3578C72.6109 13.5322 69.1661 9.42079 64.7785 6.53195C60.3909 3.64311 55.2528 2.10352 49.9995 2.10352C44.7463 2.10352 39.6082 3.64311 35.2206 6.53195C30.833 9.42079 27.3882 13.5322 25.3122 18.3578C20.2736 17.8398 15.2138 19.1173 11.0251 21.9652C6.83631 24.813 3.78751 29.0483 2.41621 33.9244C1.04491 38.8004 1.43917 44.004 3.52947 48.6177C5.61978 53.2315 9.2719 56.9591 13.8419 59.1433C16.051 60.2076 17.7495 62.2877 17.7495 64.7387V93.5003C17.7495 94.9259 18.3158 96.293 19.3239 97.301C20.3319 98.309 21.699 98.8753 23.1245 98.8753H76.8745Z" stroke="#B7CEB4" stroke-width="3" stroke-linecap="round" stroke-linejoin="round"/>
</svg>
