<svg width="112" height="117" viewBox="0 0 112 117" fill="none" xmlns="http://www.w3.org/2000/svg">
<path d="M50.625 77.625H61.375C64.2261 77.625 66.9604 76.4924 68.9764 74.4764C70.9924 72.4604 72.125 69.7261 72.125 66.875C72.125 64.0239 70.9924 61.2896 68.9764 59.2736C66.9604 57.2576 64.2261 56.125 61.375 56.125H45.25C42.025 56.125 39.3375 57.2 37.725 59.35L7.625 88.375" stroke="#E8EFE7" stroke-width="3" stroke-linecap="round" stroke-linejoin="round"/>
<path d="M29.125 109.875L37.725 102.35C39.3375 100.2 42.025 99.1252 45.25 99.1252H66.75C72.6625 99.1252 78.0375 96.9752 81.8 92.6752L106.525 69.0252C108.599 67.0651 109.81 64.3613 109.89 61.5087C109.971 58.656 108.915 55.8881 106.955 53.814C104.995 51.7398 102.291 50.5293 99.4384 50.4486C96.5858 50.368 93.8179 51.4239 91.7437 53.384L69.1687 74.3465M2.25 83.0002L34.5 115.25" stroke="#E8EFE7" stroke-width="3" stroke-linecap="round" stroke-linejoin="round"/>
<path d="M77.4996 60.9621C86.1084 60.9621 93.0871 53.9833 93.0871 45.3746C93.0871 36.7659 86.1084 29.7871 77.4996 29.7871C68.8909 29.7871 61.9121 36.7659 61.9121 45.3746C61.9121 53.9833 68.8909 60.9621 77.4996 60.9621Z" stroke="#E8EFE7" stroke-width="3" stroke-linecap="round" stroke-linejoin="round"/>
<path d="M34.5 34.625C43.4056 34.625 50.625 27.4056 50.625 18.5C50.625 9.59441 43.4056 2.375 34.5 2.375C25.5944 2.375 18.375 9.59441 18.375 18.5C18.375 27.4056 25.5944 34.625 34.5 34.625Z" stroke="#E8EFE7" stroke-width="3" stroke-linecap="round" stroke-linejoin="round"/>
</svg>
